<?xml version="1.0" encoding="utf-8"?>
<!-- Generator: Adobe Illustrator 16.0.0, SVG Export Plug-In . SVG Version: 6.00 Build 0)  -->
<!DOCTYPE svg PUBLIC "-//W3C//DTD SVG 1.1//EN" "http://www.w3.org/Graphics/SVG/1.1/DTD/svg11.dtd">
<svg version="1.1" id="Layer_1" xmlns="http://www.w3.org/2000/svg" xmlns:xlink="http://www.w3.org/1999/xlink" x="0px" y="0px"
	 width="118px" height="118px" viewBox="0 0 118 118" enable-background="new 0 0 118 118" xml:space="preserve">
<g>
	<path fill="#F8E228" d="M117.897,58.8c0,32.414-26.28,58.7-58.702,58.7c-32.416,0-58.699-26.286-58.699-58.7
		S26.78,0.104,59.196,0.104C91.617,0.104,117.897,26.386,117.897,58.8z"/>
	<path fill="none" stroke="#0E4D54" stroke-width="7" stroke-miterlimit="10" d="M96.812,22.113H57.653v5.419
		c0,0,40.366,3.614,39.461,35.751c-0.388,13.649-6.626,25.101-24.85,25.101c-18.533,0-23.881-15.977-23.881-24.202"/>
	<g>
		<path fill="#0E4D54" d="M44.895,42.64c0,2.884-2.336,5.228-5.222,5.228c-2.886,0-5.228-2.343-5.228-5.228
			c0-2.883,2.341-5.222,5.228-5.222C42.559,37.418,44.895,39.757,44.895,42.64z"/>
		<path fill="none" stroke="#0E4D54" stroke-width="7" stroke-miterlimit="10" d="M46.679,22.041
			c-6.559,0-14.455,5.751-14.445,15.754c0.003,6.62,4.153,12.284,9.272,10.991c3.688-0.94,5.173-3.164,4.968-7.115
			c-0.182-3.527-6.619-9.849-13.09-1.113"/>
	</g>
	<path fill="#DA2A73" d="M21.736,59.706l34.58,34.575c0,0-16.396,16.388-32.791,0C5.35,76.1,21.736,59.706,21.736,59.706z"/>
</g>
</svg>
