<?xml version="1.0" encoding="utf-8"?>
<!-- Generator: Adobe Illustrator 16.0.0, SVG Export Plug-In . SVG Version: 6.00 Build 0)  -->
<!DOCTYPE svg PUBLIC "-//W3C//DTD SVG 1.1//EN" "http://www.w3.org/Graphics/SVG/1.1/DTD/svg11.dtd">
<svg version="1.1" id="Layer_1" xmlns="http://www.w3.org/2000/svg" xmlns:xlink="http://www.w3.org/1999/xlink" x="0px" y="0px"
	 width="59.956px" height="82.992px" viewBox="0 0 59.956 82.992" enable-background="new 0 0 59.956 82.992" xml:space="preserve">
<g>
	<g>
		<path fill="none" stroke="#333532" stroke-miterlimit="10" d="M59.217,39.856c-0.242,4.894-3.552,11.088-6.884,14.126
			c-6.432,5.866-10.32,5.173-10.32,5.173"/>
		<circle fill="#333532" cx="58.206" cy="40.277" r="1.75"/>
	</g>
	<g>
		<g>
			<path fill="#F4D726" d="M51.45,72.343h-9.028v10.648H24.654V72.343H0V60.594L17.883,0h24.539v59.9h9.028V72.343z M24.654,59.9
				V27.149L16.376,59.9H24.654z"/>
		</g>
		<path fill="none" stroke="#383733" stroke-width="2" stroke-miterlimit="10" d="M38.037,70.692c0,0-0.198,3.44-4.54,3.44
			c-4.738,0-4.54-3.44-4.54-3.44"/>
		<path fill="none" stroke="#383733" stroke-miterlimit="10" d="M25.035,67.077c0,0,0-3.098,2.876-3.098
			c3.138,0,3.138,3.098,3.138,3.098"/>
		<path fill="none" stroke="#383733" stroke-miterlimit="10" d="M36.178,67.077c0,0,0-2.854,2.65-2.854
			c2.892,0,2.892,2.854,2.892,2.854"/>
	</g>
	<g>
		<path fill="none" stroke="#333532" stroke-miterlimit="10" d="M8.411,38.448c0,4.899,3,11.25,6.178,14.449
			c6.134,6.176,10.052,5.676,10.052,5.676"/>
		<circle fill="#333532" cx="9.161" cy="37.948" r="1.75"/>
	</g>
</g>
</svg>
