<?xml version="1.0" encoding="utf-8"?>
<!-- Generator: Adobe Illustrator 16.0.0, SVG Export Plug-In . SVG Version: 6.00 Build 0)  -->
<!DOCTYPE svg PUBLIC "-//W3C//DTD SVG 1.1//EN" "http://www.w3.org/Graphics/SVG/1.1/DTD/svg11.dtd">
<svg version="1.1" id="Layer_1" xmlns="http://www.w3.org/2000/svg" xmlns:xlink="http://www.w3.org/1999/xlink" x="0px" y="0px"
	 width="43.057px" height="82.335px" viewBox="0 0 43.057 82.335" enable-background="new 0 0 43.057 82.335" xml:space="preserve">
<g>
	<g>
		<path fill="#F4D726" d="M41.331,0.073l-2.787,12.336H18.22l-0.755,16.771c1.779-1.783,4.888-2.674,9.32-2.674
			c9.394,0,14.092,4.036,14.092,12.11v28.937c0,4.7-1.876,8.337-5.627,10.916c-3.754,2.576-8.681,3.865-14.781,3.865
			C6.823,82.335,0,77.445,0,67.668V47.372h17.454v20.921c0,1.781,1.005,2.672,3.015,2.672c1.971,0,2.953-0.891,2.953-2.672V41.174
			c0-1.932-1.1-2.897-3.299-2.897c-2.009,0-3.053,1.667-3.13,5.002L0.229,42.823l0.91-42.75H41.331z"/>
	</g>
	<path fill="none" stroke="#383733" stroke-miterlimit="10" d="M9.384,34.182c0,0,0-2.357,1.671-2.357
		c1.822,0,1.822,2.357,1.822,2.357"/>
	<path fill="none" stroke="#383733" stroke-width="2" stroke-miterlimit="10" d="M14.497,36.619c0,0-0.25,3.44-5.72,3.44
		c-5.97,0-5.72-3.44-5.72-3.44"/>
	<path fill="none" stroke="#383733" stroke-miterlimit="10" d="M4.384,34.182c0,0,0-2.357,1.671-2.357
		c1.822,0,1.822,2.357,1.822,2.357"/>
	<g>
		<path fill="none" stroke="#333532" stroke-miterlimit="10" d="M42.318,14.783c-0.242,4.894-3.552,11.088-6.884,14.126
			c-6.432,5.866-10.32,5.173-10.32,5.173"/>
		<circle fill="#333532" cx="41.307" cy="15.205" r="1.75"/>
	</g>
</g>
</svg>
